<?xml version="1.0" standalone="no"?>
<!DOCTYPE svg PUBLIC "-//W3C//DTD SVG 20010904//EN"
 "http://www.w3.org/TR/2001/REC-SVG-20010904/DTD/svg10.dtd">
<svg version="1.0" xmlns="http://www.w3.org/2000/svg"
 width="1254.000000pt" height="1254.000000pt" viewBox="0 0 1254.000000 1254.000000"
 preserveAspectRatio="xMidYMid meet">

<g transform="translate(0.000000,1254.000000) scale(0.100000,-0.100000)"
fill="#000000" stroke="none">
<path d="M6175 11104 c-328 -24 -450 -39 -675 -84 -314 -63 -621 -167 -917
-310 -295 -143 -522 -286 -773 -486 -157 -126 -467 -432 -596 -587 -98 -120
-293 -378 -294 -389 0 -4 72 28 161 73 473 236 970 359 1455 359 247 0 259 -4
224 -81 -23 -52 -16 -73 45 -141 24 -27 49 -64 55 -83 10 -29 39 -54 178 -151
188 -132 303 -220 377 -287 47 -44 49 -46 24 -47 -65 -1 -109 -32 -109 -78 0
-15 -11 -22 -44 -31 -61 -15 -100 -51 -137 -127 -40 -81 -43 -149 -10 -212
l22 -43 -27 -21 c-64 -51 -82 -164 -40 -253 25 -55 76 -105 106 -105 11 0 24
-9 30 -21 14 -25 68 -49 112 -49 18 0 52 11 75 24 l42 25 35 -58 c65 -107 115
-224 127 -298 17 -106 20 -103 -121 -103 l-120 0 0 115 0 115 -270 0 -270 0 0
170 c0 168 0 169 26 195 20 20 25 33 22 63 -3 41 -33 55 -33 15 0 -28 -11 -38
-28 -25 -8 7 -53 15 -100 18 l-87 7 0 113 c0 108 1 114 26 139 17 17 24 34 22
52 -4 32 -28 44 -28 14 0 -29 -31 -27 -69 5 -34 28 -42 78 -17 98 19 15 25 68
8 74 -7 2 -16 -5 -19 -17 -11 -44 -93 -17 -93 30 0 24 -34 23 -36 -1 -1 -8 -2
-21 -2 -27 -3 -20 -82 -17 -82 2 0 8 -4 15 -10 15 -5 0 -10 -7 -10 -15 0 -8
-5 -24 -12 -35 -10 -16 -9 -23 10 -43 28 -29 28 -35 -3 -67 l-25 -26 8 -154
c9 -162 -1 -232 -11 -88 -23 311 -20 538 9 538 8 0 14 10 14 26 0 21 -9 29
-52 48 -29 13 -61 26 -70 29 -16 6 -18 21 -18 127 l0 120 65 0 c41 0 83 -7
115 -20 30 -12 74 -20 108 -20 l57 0 0 115 1 115 -57 0 c-37 0 -74 8 -106 22
-33 15 -69 22 -115 22 -58 1 -68 4 -68 19 0 9 -4 17 -10 17 -6 0 -10 -91 -10
-252 l0 -253 -75 -28 c-65 -24 -75 -31 -75 -53 0 -15 6 -24 15 -24 11 0 16
-11 16 -37 2 -102 -3 -276 -10 -346 l-7 -78 24 6 c29 7 54 -12 47 -35 -7 -23
18 -42 52 -38 22 2 28 8 28 27 0 28 25 47 50 37 13 -5 16 -14 11 -41 -3 -19
-9 -50 -12 -69 -3 -19 -19 -47 -35 -62 l-29 -28 0 -318 c0 -276 -2 -318 -15
-318 -13 0 -15 43 -15 326 l0 325 29 25 c16 13 31 37 33 52 4 27 3 28 -21 17
-19 -9 -161 -12 -535 -11 -527 1 -558 4 -485 40 40 20 58 20 65 1 4 -8 14 -15
24 -15 10 0 20 7 24 15 7 20 62 20 70 0 6 -16 35 -10 49 9 5 7 10 6 17 -4 8
-13 13 -13 30 -2 11 7 26 9 33 5 7 -4 26 -8 43 -10 l32 -2 4 61 c5 65 21 88
63 88 37 0 55 -31 55 -93 0 -50 2 -57 19 -57 11 0 23 4 26 10 4 6 13 5 24 -2
35 -21 51 -3 51 57 0 30 5 55 10 55 6 0 10 -27 10 -62 0 -45 3 -59 11 -51 8 8
19 6 40 -6 28 -15 31 -15 40 1 8 15 13 16 29 5 16 -9 24 -9 40 1 27 16 49 15
56 -3 4 -8 15 -15 25 -15 14 0 19 7 19 30 l0 30 -100 0 c-97 0 -100 1 -101 23
-3 56 4 83 26 102 26 22 37 76 18 82 -7 3 -13 -2 -13 -11 0 -22 -16 -20 -57 5
-45 28 -57 57 -33 84 25 28 33 80 15 95 -15 13 -15 13 -30 -35 -3 -11 -20 -15
-69 -15 l-64 0 -7 40 c-4 22 -10 42 -14 44 -13 9 -34 -12 -28 -28 4 -9 2 -16
-3 -16 -6 0 -10 -9 -10 -20 0 -19 -5 -21 -72 -18 -70 3 -73 4 -73 27 0 28 -17
38 -33 18 -14 -17 7 -82 32 -100 26 -19 13 -47 -36 -79 -42 -27 -43 -28 -57
-8 -19 28 -31 25 -31 -10 0 -32 30 -70 55 -70 12 0 15 -13 15 -55 l0 -55 -133
0 c-84 0 -137 4 -144 11 -15 15 -35 1 -28 -20 11 -35 -51 -68 -84 -44 -17 12
-19 18 -10 29 16 19 4 44 -21 44 -29 0 -33 -19 -18 -81 10 -43 20 -58 48 -77
19 -13 38 -31 41 -40 4 -9 5 -102 2 -207 l-4 -190 -205 -3 c-112 -1 -204 -6
-204 -10 0 -4 7 -48 15 -99 49 -302 209 -572 443 -749 289 -218 670 -308 1194
-283 633 30 1452 235 2010 503 64 31 120 56 125 56 5 0 25 14 46 31 37 30 47
61 26 75 -6 3 -21 30 -34 58 -33 75 -226 270 -282 285 -49 13 -128 94 -138
142 -4 16 -21 44 -39 62 -60 58 -69 101 -41 193 8 27 15 54 15 61 0 22 -30 41
-102 63 -98 30 -132 48 -208 115 -76 66 -123 96 -201 125 -62 22 -95 51 -86
74 3 8 28 27 56 40 27 14 52 30 56 36 3 5 -4 28 -17 50 -27 48 -25 51 70 75
68 17 91 14 134 -16 32 -23 50 -24 108 -2 58 21 70 31 70 56 0 11 12 35 26 54
16 21 23 40 19 52 -4 14 3 24 30 39 25 15 35 28 35 45 0 33 -20 48 -83 62 -36
9 -51 17 -48 26 2 8 6 21 8 31 3 9 -5 26 -17 38 -19 19 -29 21 -70 16 -98 -13
-105 18 -19 88 35 29 59 56 57 65 -2 9 -21 24 -43 35 -22 10 -75 46 -118 79
-87 67 -121 75 -160 39 -13 -12 -45 -26 -71 -31 -53 -10 -69 -21 -94 -71 -25
-49 -52 -54 -98 -21 -22 15 -84 43 -139 60 -118 39 -142 53 -156 89 -6 14 -32
50 -60 79 -27 28 -49 56 -49 60 0 5 7 19 16 32 12 17 15 35 10 70 -5 42 -3 50
19 71 14 13 25 33 25 45 0 24 -35 75 -52 75 -6 0 -28 -16 -50 -36 -32 -29 -45
-34 -66 -29 -15 4 -29 12 -31 18 -2 7 -25 33 -50 59 -25 26 -71 77 -101 113
-30 37 -70 83 -87 101 -44 47 -46 97 -4 118 40 21 121 114 128 147 3 15 16 37
28 49 l24 22 33 -25 c18 -14 52 -34 75 -46 23 -11 59 -41 80 -66 39 -47 75
-59 87 -29 10 26 110 144 123 144 7 0 26 -20 43 -46 36 -51 46 -49 75 16 21
46 38 50 61 14 9 -14 31 -32 48 -41 17 -9 47 -29 67 -44 20 -16 44 -29 53 -29
18 0 50 48 67 100 25 76 66 88 147 45 26 -14 55 -25 64 -25 38 0 131 44 169
79 32 31 39 45 39 77 1 55 22 76 130 128 106 52 149 57 210 26 43 -22 65 -49
76 -93 9 -37 45 -60 81 -53 19 4 38 0 58 -14 18 -12 47 -20 73 -20 79 0 134
-19 170 -58 37 -41 54 -43 169 -23 63 11 75 10 97 -4 14 -9 29 -14 34 -11 5 3
17 -3 27 -14 22 -25 12 -56 -26 -75 -22 -12 -29 -23 -29 -44 0 -22 -10 -37
-40 -61 -47 -37 -52 -67 -14 -76 37 -9 68 -84 59 -142 l-6 -43 44 6 c36 6 45
4 51 -10 5 -13 14 -15 45 -10 33 5 41 3 50 -14 6 -11 11 -28 11 -39 0 -11 9
-31 21 -46 19 -24 26 -26 65 -20 35 5 48 2 70 -15 25 -20 35 -21 109 -15 l81
6 52 -38 c58 -44 66 -70 30 -104 -26 -24 -32 -25 -48 -5 -7 8 -20 15 -29 15
-26 0 -141 -90 -141 -111 0 -10 -12 -26 -26 -35 -20 -14 -25 -24 -22 -49 3
-37 -12 -60 -54 -81 -25 -13 -29 -13 -48 6 -26 26 -34 25 -73 -4 -45 -32 -59
-36 -88 -20 -32 18 -109 19 -109 1 0 -8 11 -24 25 -37 14 -13 25 -29 25 -36 0
-7 -27 -37 -60 -67 -56 -50 -60 -57 -61 -98 -1 -77 -18 -110 -76 -144 -29 -16
-70 -53 -93 -82 -25 -34 -50 -55 -68 -58 -53 -12 -54 -13 -92 -98 -12 -26 -45
-73 -73 -104 -50 -54 -52 -58 -58 -129 -5 -65 -10 -78 -46 -126 -33 -43 -42
-63 -46 -107 -4 -54 -4 -56 35 -90 53 -47 68 -79 68 -141 0 -44 4 -56 30 -82
23 -23 36 -29 54 -24 17 4 33 -1 53 -17 15 -13 55 -42 88 -64 86 -58 91 -65
77 -117 -10 -37 -8 -51 8 -95 11 -28 20 -61 20 -74 0 -30 115 -167 140 -167
38 0 31 23 -25 80 -51 52 -58 64 -72 126 -8 42 -12 89 -8 121 8 66 -7 94 -79
153 -50 41 -55 49 -56 85 -1 96 62 249 152 369 100 133 256 234 427 277 70 18
105 21 210 17 69 -3 132 -7 140 -9 9 -3 19 13 31 46 104 299 356 547 612 601
256 55 616 -32 937 -225 104 -63 82 -36 -65 79 -260 204 -567 355 -928 455
-98 27 -56 28 100 0 425 -74 791 -241 1144 -521 118 -93 379 -359 476 -484
243 -312 425 -657 521 -985 l23 -80 -6 70 c-8 108 -51 359 -84 496 -231 949
-816 1782 -1630 2323 -581 385 -1203 610 -1890 680 -144 15 -509 27 -605 20z
m-1810 -1796 c6 -13 18 -22 28 -22 21 2 23 -15 1 -23 -11 -4 -13 -13 -8 -37 6
-31 6 -31 -14 -12 -15 13 -29 16 -47 12 -24 -6 -25 -5 -14 15 9 18 9 25 -5 34
-22 16 -20 25 4 25 11 0 23 7 26 15 8 21 18 19 29 -7z m-185 -478 c0 -25 -4
-30 -25 -30 -20 0 -25 5 -25 23 0 28 7 37 32 37 13 0 18 -8 18 -30z m-79 7
c-1 -4 -1 -14 -1 -22 0 -8 -4 -15 -10 -15 -5 0 -10 12 -10 26 0 14 5 24 11 22
6 -2 10 -7 10 -11z m139 -18 c0 -38 -24 -35 -28 4 -2 19 1 27 12 27 11 0 16
-10 16 -31z m-76 -135 c11 -27 7 -42 -13 -47 -14 -3 -20 2 -24 19 -6 36 25 60
37 28z m4 -137 c16 -19 3 -57 -18 -57 -21 0 -31 38 -15 57 13 16 20 16 33 0z
m-685 -130 c8 -22 -4 -67 -19 -67 -10 0 -14 13 -14 40 0 28 4 40 14 40 8 0 16
-6 19 -13z m1010 -104 c6 -57 -5 -83 -37 -83 -36 0 -49 24 -43 77 10 88 70 93
80 6z m18 -273 l30 -29 -3 -118 -3 -118 -80 0 -80 0 0 123 c0 123 0 124 28
148 38 32 72 31 108 -6z m-861 -9 c55 -38 60 -67 58 -291 l-3 -205 -122 -3
-122 -3 -6 43 c-3 24 -4 120 -1 215 6 213 15 236 105 263 31 10 58 4 91 -19z
m1098 -43 c4 -13 7 -66 7 -118 l0 -95 -40 0 -40 0 -2 94 c0 52 3 105 8 118 12
31 57 32 67 1z m-799 -9 c51 -18 61 -50 61 -204 l0 -135 -85 0 -85 0 0 143 c0
152 7 178 54 197 11 5 21 9 22 9 1 1 15 -4 33 -10z m1684 -47 c12 -11 17 -28
15 -59 -1 -23 -4 -43 -7 -43 -5 0 -91 132 -100 154 -4 10 63 -28 92 -52z
m-2342 35 c33 -25 38 -54 37 -191 l-2 -136 -83 0 -83 0 0 144 c0 130 2 146 21
170 16 20 29 26 57 26 20 0 44 -6 53 -13z m2429 -157 c0 -10 -4 -22 -10 -25
-6 -4 -10 7 -10 25 0 18 4 29 10 25 6 -3 10 -15 10 -25z m203 -208 c26 -29 47
-55 47 -57 0 -3 -43 -5 -95 -5 l-95 0 0 108 0 107 48 -50 c26 -28 68 -74 95
-103z m-883 -126 l295 -12 -180 -7 c-99 -4 -310 -12 -470 -17 -159 -6 -333
-13 -385 -16 -76 -5 -93 -4 -83 6 9 10 7 17 -12 31 -24 20 -61 26 -50 9 3 -5
-7 -13 -22 -17 l-28 -7 25 -7 c14 -4 -33 -7 -105 -6 -95 0 -115 2 -75 7 37 4
44 7 23 8 -18 1 -33 7 -33 12 0 6 -20 10 -45 10 -25 0 -45 -4 -45 -10 0 -5 -8
-11 -17 -11 -10 -1 -2 -5 17 -10 23 -5 -1 -6 -65 -4 -55 3 -133 5 -174 5 -62
0 -72 2 -62 14 9 11 9 15 -1 19 -7 3 19 6 59 6 60 1 71 -1 67 -14 -5 -12 3
-15 42 -15 45 1 48 2 30 15 -11 8 -18 16 -15 16 2 1 137 5 299 8 332 8 580 4
1010 -13z m-1550 -16 c15 -5 -38 -8 -130 -8 -92 0 -145 3 -130 8 14 4 72 8
130 8 58 0 116 -4 130 -8z m830 -114 c36 -8 76 -17 90 -19 15 -3 8 -5 -17 -6
-23 0 -54 5 -69 11 -18 8 -29 9 -31 3 -2 -6 -22 -9 -46 -6 -41 5 -41 5 -12 12
l30 7 -33 1 c-19 1 -31 5 -27 11 3 6 16 8 28 5 12 -2 51 -11 87 -19z m-593
-72 c-3 -3 -12 -4 -19 -1 -8 3 -5 6 6 6 11 1 17 -2 13 -5z"/>
<path d="M4033 7443 c15 -2 37 -2 50 0 12 2 0 4 -28 4 -27 0 -38 -2 -22 -4z"/>
<path d="M4338 7443 c12 -2 32 -2 45 0 12 2 2 4 -23 4 -25 0 -35 -2 -22 -4z"/>
<path d="M4200 8340 c0 -5 5 -10 10 -10 6 0 10 5 10 10 0 6 -4 10 -10 10 -5 0
-10 -4 -10 -10z"/>
<path d="M10496 6954 c-18 -245 -89 -617 -171 -899 -270 -932 -754 -1787
-1343 -2371 -520 -517 -1181 -871 -1875 -1003 -150 -29 -162 -25 -32 10 161
43 281 84 452 155 659 274 1246 712 1620 1209 121 162 215 334 264 484 42 126
45 263 10 353 -76 194 -339 314 -766 347 -66 5 -174 7 -240 3 l-120 -7 -3 -29
c-3 -24 4 -36 35 -62 30 -26 36 -35 26 -45 -20 -21 -15 -41 19 -76 l32 -33
-19 -38 c-10 -20 -20 -40 -22 -43 -1 -3 9 -21 22 -39 31 -42 32 -73 3 -102
-18 -18 -22 -34 -23 -89 -1 -60 -4 -70 -33 -103 -36 -41 -40 -65 -16 -105 15
-26 15 -32 0 -79 -17 -50 -40 -81 -49 -65 -2 4 -7 20 -11 36 -8 32 -31 35 -46
6 -15 -28 -4 -72 26 -99 33 -32 31 -74 -6 -117 -19 -21 -30 -45 -30 -64 0 -66
-47 -113 -88 -88 -29 18 -68 3 -91 -35 -16 -25 -32 -36 -64 -45 -48 -11 -97
-45 -97 -65 0 -22 -32 -40 -120 -70 -98 -33 -105 -38 -136 -87 -19 -31 -35
-41 -91 -59 -74 -25 -147 -59 -203 -96 -32 -21 -41 -23 -68 -13 -27 9 -35 8
-59 -11 -18 -14 -35 -19 -50 -15 -15 3 -29 -1 -43 -15 -22 -22 -25 -46 -11
-84 8 -21 5 -31 -24 -68 -19 -24 -35 -55 -35 -69 0 -14 -13 -53 -30 -85 -28
-57 -32 -61 -85 -77 -74 -22 -88 -15 -265 142 -93 83 -91 78 15 -49 93 -110
108 -134 100 -159 -9 -30 -110 -80 -175 -87 -84 -9 -119 -23 -167 -67 -28 -26
-47 -53 -54 -81 -13 -50 -32 -72 -83 -98 -21 -11 -57 -33 -79 -49 -22 -16 -48
-29 -58 -29 -10 0 -29 -5 -42 -11 -18 -8 -34 -7 -68 4 -60 20 -67 35 -41 88
18 38 20 60 17 167 -3 113 -1 129 22 185 21 51 24 72 19 118 -6 65 8 91 69
129 59 36 59 100 1 120 -18 6 -44 22 -56 35 -28 30 -40 31 -73 5 -33 -26 -54
-25 -68 2 -7 13 -27 40 -46 61 -35 40 -36 50 -9 107 12 25 17 26 69 14 22 -5
38 0 70 23 23 17 52 33 64 37 12 4 34 21 48 38 22 26 25 36 19 79 -8 60 5 69
69 44 44 -17 45 -16 108 10 35 15 76 29 91 32 32 6 88 -25 112 -62 12 -19 25
-25 51 -25 22 0 41 -8 54 -21 22 -24 68 -23 84 2 18 28 -10 76 -57 99 -22 11
-52 31 -65 45 -13 14 -29 25 -37 25 -7 0 -21 11 -29 24 -13 20 -14 30 -3 69
11 43 10 48 -16 86 -28 41 -29 71 -2 71 8 0 39 13 70 29 46 24 61 28 86 21 17
-5 62 -12 100 -16 63 -6 69 -5 80 15 9 19 7 29 -15 67 -23 39 -25 48 -13 62
22 29 32 32 73 27 67 -9 86 24 33 59 -29 19 -102 5 -136 -27 -28 -26 -42 -74
-30 -106 5 -13 7 -26 4 -28 -2 -2 -32 1 -66 7 -59 11 -64 10 -123 -18 -34 -16
-77 -33 -94 -37 -36 -7 -63 -38 -63 -70 0 -11 10 -36 22 -55 17 -27 22 -51 22
-108 l1 -73 -28 5 c-20 4 -48 -3 -93 -25 -65 -32 -81 -33 -140 -8 -66 27 -118
-16 -117 -99 0 -46 -10 -72 -28 -72 -5 0 -9 15 -9 34 0 23 -7 39 -19 48 -11 8
-21 27 -23 43 -2 24 -8 31 -30 33 -16 2 -28 9 -28 18 0 8 -4 14 -10 14 -5 0
-10 -7 -10 -15 0 -13 -18 -20 -42 -16 -4 0 -13 -19 -19 -44 -8 -33 -16 -45
-30 -45 -17 0 -19 -9 -19 -88 0 -62 -5 -99 -16 -121 -16 -32 -15 -59 2 -132 5
-24 4 -26 -20 -22 -25 5 -26 7 -26 82 0 78 -15 131 -37 131 -9 0 -13 42 -15
163 -3 136 -5 162 -18 162 -11 0 -16 13 -18 47 l-3 47 -47 3 c-43 3 -47 5 -53
33 l-6 30 -4 -30 c-4 -27 -8 -30 -46 -33 l-42 -3 -3 -47 c-2 -39 -7 -48 -24
-50 -21 -3 -21 -7 -23 -288 l-2 -286 46 33 c31 22 45 39 45 56 0 14 6 23 15
23 9 0 15 -9 15 -23 0 -24 15 -36 297 -239 67 -48 129 -88 137 -88 8 0 18 -5
21 -10 4 -7 -72 -10 -220 -10 l-226 0 3 -32 3 -33 73 -9 c40 -4 71 -11 68 -14
-8 -7 -391 -9 -413 -1 -18 6 83 19 152 19 40 0 43 2 47 31 3 17 0 33 -6 35 -6
2 -184 3 -395 2 -287 -2 -385 -6 -388 -15 -3 -7 13 -16 39 -23 24 -6 115 -31
203 -56 394 -113 537 -144 671 -144 42 0 55 -3 44 -10 -8 -5 -94 -10 -191 -10
-197 0 -293 13 -459 62 -58 17 -141 41 -185 54 -263 78 -636 128 -989 133 -77
1 -146 6 -154 10 -14 8 204 21 355 21 77 0 85 2 152 41 l71 41 0 84 c0 93 -1
92 75 75 28 -6 29 -9 27 -49 -2 -23 0 -42 5 -41 4 0 34 17 65 37 32 20 93 60
137 87 71 45 80 54 85 88 3 20 11 37 16 37 13 0 30 -34 30 -59 0 -12 4 -21 8
-21 13 0 103 -72 97 -78 -2 -3 -11 1 -19 7 -26 21 -26 -5 -1 -29 17 -16 21
-26 14 -31 -8 -5 -8 -8 0 -13 6 -4 11 -2 11 4 0 6 6 8 13 4 6 -4 3 3 -8 16
-19 22 -19 23 -1 16 16 -5 17 -4 6 9 -7 8 -9 15 -4 15 5 0 8 125 6 280 -3 271
-3 280 -22 280 -17 0 -20 7 -20 40 l0 40 -50 0 -49 0 -4 73 -3 72 -2 -72 -2
-73 -50 0 -50 0 0 -40 c0 -36 -2 -40 -25 -40 l-25 0 0 -144 0 -144 -49 -12
c-58 -14 -61 -20 -61 -132 0 -43 -2 -78 -4 -78 -2 0 -37 16 -77 35 l-73 35 3
153 c1 84 -2 207 -8 273 -23 259 -41 473 -41 493 0 17 -6 21 -29 21 -17 0 -32
4 -35 8 -2 4 10 6 29 4 39 -5 143 23 168 45 39 36 23 43 -103 43 -88 0 -122 3
-124 13 -2 6 -22 110 -46 231 -55 285 -63 312 -101 332 -50 26 -72 16 -81 -36
-7 -41 -29 -265 -30 -300 0 -8 -7 -82 -15 -165 -8 -82 -17 -179 -19 -215 -2
-36 -5 -90 -8 -120 -5 -56 -11 -163 -22 -370 -3 -63 -7 -117 -9 -118 -7 -7
-211 143 -325 239 -565 474 -1071 1293 -1333 2160 -23 77 -43 135 -45 129 -7
-20 19 -352 38 -505 131 -1022 625 -2046 1303 -2701 640 -619 1428 -1025 2258
-1163 283 -48 382 -55 689 -55 300 1 472 16 727 65 516 98 1021 301 1458 584
463 300 857 697 1190 1199 141 213 215 342 320 560 268 552 433 1137 496 1751
18 174 15 599 -5 769 -9 77 -18 141 -20 143 -1 2 -6 -35 -10 -83z m-6556
-1964 c0 -5 -2 -10 -4 -10 -3 0 -8 5 -11 10 -3 6 -1 10 4 10 6 0 11 -4 11 -10z
m20 -60 c0 -5 -9 -10 -20 -10 -11 0 -20 5 -20 10 0 6 9 10 20 10 11 0 20 -4
20 -10z m5 -60 c4 -6 -7 -10 -24 -10 -17 0 -31 5 -31 10 0 6 11 10 24 10 14 0
28 -4 31 -10z m-7 -47 c-10 -2 -26 -2 -35 0 -10 3 -2 5 17 5 19 0 27 -2 18 -5z
m0 -40 c-10 -2 -26 -2 -35 0 -10 3 -2 5 17 5 19 0 27 -2 18 -5z m12 -43 c20
-6 16 -8 -23 -9 -30 -1 -46 3 -42 9 7 11 29 11 65 0z m25 -61 c10 -15 6 -16
-52 -11 -29 2 -50 8 -47 13 7 13 91 11 99 -2z m43 -151 c-3 -9 -28 -13 -78
-13 -50 0 -75 4 -77 13 -4 9 16 12 77 12 61 0 81 -3 78 -12z m12 -78 c0 -6
-35 -10 -85 -10 -50 0 -85 4 -85 10 0 6 35 10 85 10 50 0 85 -4 85 -10z m10
-70 c0 -6 -37 -10 -90 -10 -53 0 -90 4 -90 10 0 6 37 10 90 10 53 0 90 -4 90
-10z m15 -70 c-3 -6 -50 -10 -106 -10 -59 0 -99 4 -99 10 0 6 42 10 106 10 67
0 103 -4 99 -10z m4460 -4 c19 -14 19 -15 1 -35 -11 -12 -27 -21 -36 -21 -26
0 -33 30 -14 51 20 23 25 23 49 5z m-4445 -56 c0 -6 -43 -10 -110 -10 -67 0
-110 4 -110 10 0 6 43 10 110 10 67 0 110 -4 110 -10z m4352 -15 c9 -19 8 -29
-6 -50 -9 -14 -25 -25 -36 -25 -16 0 -20 7 -20 38 0 60 40 85 62 37z m121 -7
c5 -16 -10 -48 -24 -48 -16 0 -22 29 -9 45 15 18 27 19 33 3z m-4468 -48 c3
-6 -4 -10 -17 -11 -22 0 -209 0 -216 1 -2 0 0 5 3 10 4 6 53 10 115 10 62 0
111 -4 115 -10z m14 -76 c10 -9 -10 -12 -119 -15 -71 -3 -116 0 -118 6 -4 18
218 27 237 9z m4393 -56 c-7 -7 -12 -8 -12 -2 0 14 12 26 19 19 2 -3 -1 -11
-7 -17z m-4388 -6 c2 -4 1 -14 -5 -22 -5 -8 -9 -10 -9 -4 0 6 -15 11 -32 11
-100 -3 -208 4 -208 13 0 12 246 14 254 2z m11 -72 c4 -6 -43 -10 -134 -10
-87 0 -141 4 -141 10 0 6 51 10 134 10 79 0 137 -4 141 -10z m1355 0 c0 -5 -7
-10 -15 -10 -8 0 -15 5 -15 10 0 6 7 10 15 10 8 0 15 -4 15 -10z m50 0 c0 -5
-4 -10 -10 -10 -5 0 -10 5 -10 10 0 6 5 10 10 10 6 0 10 -4 10 -10z m50 0 c0
-5 -4 -10 -10 -10 -5 0 -10 5 -10 10 0 6 5 10 10 10 6 0 10 -4 10 -10z m60 0
c0 -5 -4 -10 -10 -10 -5 0 -10 5 -10 10 0 6 5 10 10 10 6 0 10 -4 10 -10z
m2698 -57 c3 -46 0 -54 -23 -69 -18 -12 -24 -22 -19 -36 7 -23 -12 -48 -37
-48 -22 0 -35 36 -18 56 9 11 9 20 0 40 -16 35 -15 39 20 79 21 24 39 35 53
33 18 -3 21 -11 24 -55z m142 15 c0 -18 -41 -68 -55 -68 -14 0 -35 29 -35 48
0 5 9 21 21 35 19 25 21 26 45 11 13 -9 24 -21 24 -26z m-3910 6 c0 -16 -16
-19 -25 -4 -8 13 4 32 16 25 5 -4 9 -13 9 -21z m52 -6 c-15 -15 -26 -4 -18 18
5 13 9 15 18 6 9 -9 9 -15 0 -24z m118 6 c0 -8 -4 -14 -10 -14 -5 0 -10 9 -10
21 0 11 5 17 10 14 6 -3 10 -13 10 -21z m-60 1 c0 -8 -4 -15 -10 -15 -5 0 -10
7 -10 15 0 8 5 15 10 15 6 0 10 -7 10 -15z m795 -15 c3 -5 -1 -10 -10 -10 -9
0 -13 5 -10 10 3 6 8 10 10 10 2 0 7 -4 10 -10z m55 0 c0 -5 -4 -10 -10 -10
-5 0 -10 5 -10 10 0 6 5 10 10 10 6 0 10 -4 10 -10z m50 0 c0 -5 -5 -10 -11
-10 -5 0 -7 5 -4 10 3 6 8 10 11 10 2 0 4 -4 4 -10z m60 0 c0 -5 -4 -10 -10
-10 -5 0 -10 5 -10 10 0 6 5 10 10 10 6 0 10 -4 10 -10z m-1500 -29 c0 -6 -62
-11 -145 -13 -111 -2 -145 0 -145 10 0 9 36 12 145 12 85 0 145 -4 145 -9z
m1340 -21 c0 -5 -7 -10 -16 -10 -8 0 -12 5 -9 10 3 6 10 10 16 10 5 0 9 -4 9
-10z m50 0 c0 -5 -4 -10 -10 -10 -5 0 -10 5 -10 10 0 6 5 10 10 10 6 0 10 -4
10 -10z m50 0 c0 -5 -4 -10 -10 -10 -5 0 -10 5 -10 10 0 6 5 10 10 10 6 0 10
-4 10 -10z m60 0 c0 -5 -4 -10 -10 -10 -5 0 -10 5 -10 10 0 6 5 10 10 10 6 0
10 -4 10 -10z m-1070 -16 c0 -17 -22 -14 -28 4 -2 7 3 12 12 12 9 0 16 -7 16
-16z m58 4 c-6 -18 -28 -21 -28 -4 0 9 7 16 16 16 9 0 14 -5 12 -12z m52 -3
c0 -8 -4 -15 -10 -15 -5 0 -10 7 -10 15 0 8 5 15 10 15 6 0 10 -7 10 -15z m60
0 c0 -8 -4 -15 -10 -15 -5 0 -10 7 -10 15 0 8 5 15 10 15 6 0 10 -7 10 -15z
m-602 -37 c-3 -9 -42 -14 -138 -16 -138 -3 -166 1 -155 18 10 16 298 13 293
-2z m1342 2 c0 -5 -4 -10 -10 -10 -5 0 -10 5 -10 10 0 6 5 10 10 10 6 0 10 -4
10 -10z m50 0 c0 -5 -4 -10 -10 -10 -5 0 -10 5 -10 10 0 6 5 10 10 10 6 0 10
-4 10 -10z m50 0 c0 -5 -4 -10 -10 -10 -5 0 -10 5 -10 10 0 6 5 10 10 10 6 0
10 -4 10 -10z m60 0 c0 -5 -4 -10 -10 -10 -5 0 -10 5 -10 10 0 6 5 10 10 10 6
0 10 -4 10 -10z m-2000 -219 c-3 -283 -9 -371 -26 -371 -12 0 -14 51 -14 294
0 293 0 294 21 289 20 -6 20 -11 19 -212z m40 -87 c0 -183 -4 -284 -10 -284
-6 0 -10 104 -10 291 0 191 3 288 10 284 6 -4 10 -112 10 -291z m885 266 c-5
-8 -11 -8 -17 -2 -6 6 -7 16 -3 22 5 8 11 8 17 2 6 -6 7 -16 3 -22z m58 4 c-4
-10 -9 -12 -15 -6 -12 12 -1 35 12 27 5 -3 6 -13 3 -21z m-869 -16 c0 -16 -1
-143 -2 -283 -2 -248 -3 -255 -22 -255 -18 0 -20 7 -20 58 0 31 -3 160 -7 285
l-6 229 29 -4 c24 -2 29 -7 28 -30z m926 17 c0 -8 -4 -15 -10 -15 -5 0 -10 7
-10 15 0 8 5 15 10 15 6 0 10 -7 10 -15z m60 5 c0 -5 -4 -10 -10 -10 -5 0 -10
5 -10 10 0 6 5 10 10 10 6 0 10 -4 10 -10z m740 -20 c0 -5 -4 -10 -10 -10 -5
0 -10 5 -10 10 0 6 5 10 10 10 6 0 10 -4 10 -10z m50 0 c0 -5 -4 -10 -10 -10
-5 0 -10 5 -10 10 0 6 5 10 10 10 6 0 10 -4 10 -10z m50 0 c0 -5 -5 -10 -11
-10 -5 0 -7 5 -4 10 3 6 8 10 11 10 2 0 4 -4 4 -10z m60 0 c0 -5 -4 -10 -10
-10 -5 0 -10 5 -10 10 0 6 5 10 10 10 6 0 10 -4 10 -10z m-1500 -24 c0 -13
-115 -26 -242 -26 -96 0 -63 20 42 26 52 3 96 7 99 9 2 3 26 5 53 5 34 0 48
-4 48 -14z m430 -21 c0 -8 -4 -15 -9 -15 -13 0 -22 16 -14 24 11 11 23 6 23
-9z m51 -8 c-13 -13 -26 -3 -16 12 3 6 11 8 17 5 6 -4 6 -10 -1 -17z m59 8 c0
-8 -4 -15 -10 -15 -5 0 -10 7 -10 15 0 8 5 15 10 15 6 0 10 -7 10 -15z m60 0
c0 -8 -4 -15 -10 -15 -5 0 -10 7 -10 15 0 8 5 15 10 15 6 0 10 -7 10 -15z
m740 -5 c0 -5 -7 -10 -16 -10 -8 0 -12 5 -9 10 3 6 10 10 16 10 5 0 9 -4 9
-10z m50 -5 c0 -8 -4 -15 -10 -15 -5 0 -10 7 -10 15 0 8 5 15 10 15 6 0 10 -7
10 -15z m50 5 c0 -5 -4 -10 -10 -10 -5 0 -10 5 -10 10 0 6 5 10 10 10 6 0 10
-4 10 -10z m60 -6 c0 -8 -4 -12 -10 -9 -5 3 -10 10 -10 16 0 5 5 9 10 9 6 0
10 -7 10 -16z m-1527 -31 c-13 -2 -33 -2 -45 0 -13 2 -3 4 22 4 25 0 35 -2 23
-4z m457 -24 c0 -5 -7 -9 -15 -9 -15 0 -20 12 -9 23 8 8 24 -1 24 -14z m60 0
c0 -5 -7 -9 -15 -9 -15 0 -20 12 -9 23 8 8 24 -1 24 -14z m55 -9 c-5 -8 -11
-8 -17 -2 -6 6 -7 16 -3 22 5 8 11 8 17 2 6 -6 7 -16 3 -22z m55 15 c0 -8 -4
-15 -10 -15 -5 0 -10 7 -10 15 0 8 5 15 10 15 6 0 10 -7 10 -15z m740 0 c0 -8
-4 -15 -9 -15 -13 0 -22 16 -14 24 11 11 23 6 23 -9z m50 0 c0 -8 -4 -15 -10
-15 -5 0 -10 7 -10 15 0 8 5 15 10 15 6 0 10 -7 10 -15z m54 -6 c-3 -5 -10 -7
-15 -3 -5 3 -7 10 -3 15 3 5 10 7 15 3 5 -3 7 -10 3 -15z m56 6 c0 -8 -4 -15
-10 -15 -5 0 -10 7 -10 15 0 8 5 15 10 15 6 0 10 -7 10 -15z m-1589 -5 c50 0
88 -4 85 -8 -10 -17 -284 -23 -288 -7 -3 10 76 25 100 18 8 -1 54 -3 103 -3z
m-541 -31 c0 -5 -7 -9 -15 -9 -15 0 -20 12 -9 23 8 8 24 -1 24 -14z m930 -5
c0 -14 -4 -23 -10 -19 -5 3 -10 15 -10 26 0 10 5 19 10 19 6 0 10 -12 10 -26z
m-1050 6 c0 -5 -4 -10 -9 -10 -6 0 -13 5 -16 10 -3 6 1 10 9 10 9 0 16 -4 16
-10z m4757 -6 c5 -16 -28 -51 -55 -59 -37 -11 -41 23 -6 52 30 24 54 27 61 7z
m-4017 -54 c0 -6 -55 -10 -145 -10 -90 0 -145 4 -145 10 0 6 55 10 145 10 90
0 145 -4 145 -10z m3810 -39 c0 -11 -39 -41 -52 -41 -10 0 -11 34 -1 43 10 11
53 8 53 -2z m-3812 -30 c3 -8 -41 -11 -137 -11 -129 0 -162 6 -143 24 11 12
276 -1 280 -13z m633 -58 c13 -16 12 -17 -3 -4 -17 13 -22 21 -14 21 2 0 10
-8 17 -17z m-656 -3 c-4 -6 -60 -10 -136 -10 -84 0 -128 4 -124 10 4 6 60 10
136 10 84 0 128 -4 124 -10z m-130 -69 c-6 -5 -35 -10 -65 -11 -68 -3 -73 -2
-65 10 3 6 36 10 73 10 40 0 62 -4 57 -9z m685 -362 c118 -21 171 -35 420
-107 281 -82 421 -108 645 -119 l150 -7 -90 -19 c-119 -24 -367 -33 -476 -18
-99 15 -242 49 -394 96 -329 102 -507 134 -778 142 -103 3 -186 8 -183 10 6 6
190 34 291 43 119 11 286 3 415 -21z m200 -270 c279 -34 460 -79 834 -204 466
-156 698 -203 1066 -213 305 -8 209 -23 -160 -25 -331 -2 -450 8 -680 59 -144
32 -226 59 -526 174 -299 116 -380 143 -524 181 -159 41 -161 47 -10 28z"/>
<path d="M4980 4400 c0 -36 -4 -52 -15 -56 -13 -5 -15 -45 -15 -275 l0 -269
-23 0 c-52 0 -57 -21 -57 -222 l0 -186 53 -39 c28 -22 82 -60 118 -85 l66 -45
113 84 113 84 -2 182 c-2 169 -4 184 -23 204 -11 12 -26 21 -32 20 -8 -1 -12
76 -14 271 -2 228 -5 272 -17 272 -10 0 -15 15 -17 53 l-3 52 -122 3 -123 3 0
-51z m309 -907 c1 -24 -3 -43 -9 -43 -6 0 -10 27 -9 63 1 71 17 53 18 -20z"/>
<path d="M4578 3494 c-39 -21 -35 -28 5 -8 37 19 44 24 31 24 -5 -1 -21 -8
-36 -16z"/>
<path d="M4703 3485 c0 -8 4 -12 9 -9 5 3 6 10 3 15 -9 13 -12 11 -12 -6z"/>
<path d="M4595 3470 c-3 -6 1 -7 9 -4 18 7 21 14 7 14 -6 0 -13 -4 -16 -10z"/>
<path d="M4703 3449 c25 -21 34 -35 27 -39 -11 -7 44 -61 155 -153 17 -14 27
-28 24 -31 -8 -9 -200 174 -194 184 3 4 -2 13 -10 20 -8 7 -15 9 -15 4 0 -5
-5 -2 -10 6 -8 13 -10 13 -10 1 0 -8 46 -62 103 -120 l102 -106 83 0 c45 0 82
2 82 5 0 3 -9 11 -21 18 -12 7 -18 16 -15 19 3 4 19 -6 35 -21 16 -16 35 -26
42 -24 6 2 -34 36 -90 76 -102 72 -149 87 -95 31 29 -31 56 -41 33 -12 -13 15
-12 15 6 5 34 -19 71 -52 59 -52 -6 0 -17 7 -24 15 -7 8 -18 15 -24 15 -6 -1
5 -14 24 -30 58 -50 22 -33 -46 21 -35 28 -64 47 -64 42 0 -5 23 -26 50 -48
28 -22 50 -44 50 -49 0 -10 1 -10 -102 73 -80 64 -103 90 -45 50 l32 -23 -25
28 c-13 14 -30 24 -36 22 -7 -3 -18 2 -24 10 -7 8 -9 14 -5 14 12 0 -26 40
-60 62 -21 14 -18 10 8 -13z m207 -114 c7 -8 8 -15 2 -15 -5 0 -15 7 -22 15
-7 8 -8 15 -2 15 5 0 15 -7 22 -15z"/>
<path d="M4609 3455 c-1 -3 -2 -8 -3 -12 -1 -5 -5 -13 -9 -20 -4 -6 -2 -13 4
-15 7 -2 -33 -44 -89 -93 -55 -50 -101 -93 -101 -97 -1 -5 7 -8 17 -8 10 0 57
40 104 89 72 76 85 95 86 125 1 20 -1 36 -3 36 -3 0 -6 -2 -6 -5z"/>
<path d="M5529 3452 c9 -7 10 -12 2 -16 -21 -14 -7 -62 34 -111 23 -27 51 -64
63 -82 20 -28 28 -32 67 -31 25 0 45 3 44 7 -1 8 -130 115 -143 119 -6 2 16
-22 49 -52 32 -30 57 -57 54 -60 -7 -7 -133 109 -154 141 l-18 28 32 -29 c17
-17 31 -25 31 -20 0 6 -13 23 -30 39 -16 16 -30 32 -30 35 0 4 39 -31 86 -77
47 -46 91 -83 98 -83 6 0 -14 23 -44 51 -30 28 -48 47 -40 43 8 -5 -3 13 -24
39 -21 26 -40 47 -43 47 -5 0 6 -20 26 -45 9 -11 1 -7 -16 9 -18 16 -31 33
-30 39 1 5 -5 12 -13 14 -12 4 -12 3 -1 -5z"/>
<path d="M4417 3393 c-48 -31 -85 -58 -83 -60 2 -3 30 12 61 32 32 20 59 34
62 31 4 -4 -146 -106 -239 -161 l-33 -20 39 -3 c32 -3 44 2 72 29 19 18 36 30
40 27 3 -4 -6 -14 -20 -23 -29 -19 -34 -35 -11 -35 23 0 158 112 144 120 -7 5
9 23 45 50 31 24 59 40 62 38 3 -3 -18 -22 -46 -43 -28 -21 -48 -40 -45 -43 3
-3 16 5 30 18 14 13 27 21 30 19 5 -5 -48 -51 -127 -109 -26 -19 -48 -38 -48
-42 0 -12 38 -10 45 2 3 5 47 47 98 92 51 45 94 87 96 92 2 6 -7 1 -21 -11
-39 -36 -45 -27 -8 12 30 31 31 34 11 30 -13 -2 -38 -16 -56 -30 -38 -28 -54
-33 -35 -10 11 13 10 15 -6 9 -13 -4 -9 3 11 20 45 38 30 32 -68 -31z m28 -38
c-19 -16 -25 -25 -15 -25 10 0 5 -10 -15 -26 -48 -40 -74 -49 -30 -10 56 50
37 45 -52 -14 -42 -28 -78 -48 -80 -46 -3 2 42 36 99 74 103 70 150 94 93 47z"/>
<path d="M5409 3433 c-13 -16 -12 -17 4 -4 16 13 21 21 13 21 -2 0 -10 -8 -17
-17z"/>
<path d="M5420 3415 c-13 -14 -20 -28 -17 -32 4 -3 1 -13 -6 -21 -10 -13 -9
-15 7 -8 20 7 20 7 0 -15 -10 -12 -45 -41 -76 -66 -32 -24 -58 -48 -58 -52 0
-4 17 -7 38 -7 36 1 44 7 110 86 39 47 67 87 61 88 -5 2 -6 9 -3 15 5 8 2 8
-7 0 -25 -25 -32 -13 -8 15 23 26 23 26 -9 -2 -33 -31 -45 -26 -15 6 25 28 10
22 -17 -7z m15 -44 c-4 -11 -1 -10 15 4 11 10 20 14 20 9 0 -13 -143 -154
-155 -154 -6 1 19 27 54 59 55 50 62 60 53 78 -9 15 -8 20 4 20 9 0 13 -6 9
-16z"/>
<path d="M4673 3309 l2 -94 63 -3 c34 -2 62 0 62 4 0 3 -21 32 -48 63 -69 81
-82 101 -48 71 15 -14 48 -51 73 -82 39 -51 73 -74 73 -50 0 4 -40 47 -89 96
l-89 89 1 -94z"/>
<path d="M5630 3386 c0 -2 8 -10 18 -17 15 -13 16 -12 3 4 -13 16 -21 21 -21
13z"/>
<path d="M5690 3365 c14 -17 13 -18 -5 -11 -17 6 -18 5 -5 -7 89 -81 162 -138
172 -135 6 2 -23 31 -65 63 -42 32 -75 61 -73 63 2 2 43 -27 91 -63 47 -36 91
-65 96 -63 8 3 -35 37 -176 137 -27 20 -43 27 -35 16z"/>
<path d="M4565 3318 c-28 -29 -61 -65 -74 -80 l-24 -28 71 0 71 0 6 33 c4 17
5 54 3 80 l-3 48 -50 -53z"/>
<path d="M5231 3300 c-119 -88 -119 -87 -79 -86 25 1 52 16 111 64 42 35 77
66 77 68 0 7 -58 -34 -65 -46 -4 -6 -12 -10 -18 -10 -7 1 8 19 33 40 25 22 43
40 40 40 -3 0 -47 -31 -99 -70z m19 -13 c0 -2 -21 -18 -47 -36 l-48 -33 40 36
c35 31 55 43 55 33z"/>
<path d="M5422 3288 c-29 -35 -52 -66 -52 -71 0 -4 24 -7 53 -5 l52 3 5 68 c3
37 3 67 0 67 -3 0 -29 -28 -58 -62z"/>
<path d="M5522 3283 l3 -68 53 -3 c28 -2 52 0 52 3 0 9 -88 123 -101 130 -6 5
-9 -17 -7 -62z"/>
<path d="M5670 3322 c19 -15 51 -42 70 -61 19 -19 26 -27 14 -18 -31 25 -41
20 -15 -6 13 -15 34 -24 53 -25 l32 -1 -30 25 c-71 59 -143 114 -151 114 -4 0
8 -13 27 -28z"/>
<path d="M5275 3273 c-52 -44 -65 -59 -51 -61 10 -2 33 10 53 30 33 31 78 88
71 88 -2 0 -35 -26 -73 -57z"/>
<path d="M4185 3252 c-52 -27 -64 -38 -49 -40 18 -3 93 38 129 70 20 18 -13 6
-80 -30z"/>
<path d="M4560 3180 c36 -11 50 -11 50 0 0 6 -17 10 -37 9 -34 -1 -35 -2 -13
-9z"/>
</g>
</svg>
